<?xml version="1.0" encoding="UTF-8" standalone="no"?>
<!DOCTYPE svg PUBLIC "-//W3C//DTD SVG 1.1//EN"
 "http://www.w3.org/Graphics/SVG/1.1/DTD/svg11.dtd">
<!-- Generated by graphviz version 2.43.0 (0)
 -->
<!-- Title: Tree Pages: 1 -->
<svg width="538pt" height="433pt"
 viewBox="0.00 0.00 538.00 433.00" xmlns="http://www.w3.org/2000/svg" xmlns:xlink="http://www.w3.org/1999/xlink">
<g id="graph0" class="graph" transform="scale(1 1) rotate(0) translate(4 429)">
<title>Tree</title>
<polygon fill="white" stroke="transparent" points="-4,4 -4,-429 534,-429 534,4 -4,4"/>
<!-- 0 -->
<g id="node1" class="node">
<title>0</title>
<path fill="#fdfffd" stroke="black" d="M247.5,-425C247.5,-425 139.5,-425 139.5,-425 133.5,-425 127.5,-419 127.5,-413 127.5,-413 127.5,-354 127.5,-354 127.5,-348 133.5,-342 139.5,-342 139.5,-342 247.5,-342 247.5,-342 253.5,-342 259.5,-348 259.5,-354 259.5,-354 259.5,-413 259.5,-413 259.5,-419 253.5,-425 247.5,-425"/>
<text text-anchor="start" x="142" y="-409.8" font-family="Helvetica,sans-Serif" font-size="14.00">petal_width ≤ 0.8</text>
<text text-anchor="start" x="158" y="-394.8" font-family="Helvetica,sans-Serif" font-size="14.00">gini = 0.667</text>
<text text-anchor="start" x="148.5" y="-379.8" font-family="Helvetica,sans-Serif" font-size="14.00">samples = 120</text>
<text text-anchor="start" x="135.5" y="-364.8" font-family="Helvetica,sans-Serif" font-size="14.00">value = [40, 41, 39]</text>
<text text-anchor="start" x="141" y="-349.8" font-family="Helvetica,sans-Serif" font-size="14.00">class = versicolor</text>
</g>
<!-- 1 -->
<g id="node2" class="node">
<title>1</title>
<path fill="#e58139" stroke="black" d="M169,-298.5C169,-298.5 76,-298.5 76,-298.5 70,-298.5 64,-292.5 64,-286.5 64,-286.5 64,-242.5 64,-242.5 64,-236.5 70,-230.5 76,-230.5 76,-230.5 169,-230.5 169,-230.5 175,-230.5 181,-236.5 181,-242.5 181,-242.5 181,-286.5 181,-286.5 181,-292.5 175,-298.5 169,-298.5"/>
<text text-anchor="start" x="94.5" y="-283.3" font-family="Helvetica,sans-Serif" font-size="14.00">gini = 0.0</text>
<text text-anchor="start" x="81.5" y="-268.3" font-family="Helvetica,sans-Serif" font-size="14.00">samples = 40</text>
<text text-anchor="start" x="72" y="-253.3" font-family="Helvetica,sans-Serif" font-size="14.00">value = [40, 0, 0]</text>
<text text-anchor="start" x="79" y="-238.3" font-family="Helvetica,sans-Serif" font-size="14.00">class = setosa</text>
</g>
<!-- 0&#45;&gt;1 -->
<g id="edge1" class="edge">
<title>0&#45;&gt;1</title>
<path fill="none" stroke="black" d="M168.87,-341.91C162.1,-330.76 154.76,-318.66 147.95,-307.44"/>
<polygon fill="black" stroke="black" points="150.81,-305.4 142.63,-298.67 144.82,-309.03 150.81,-305.4"/>
<text text-anchor="middle" x="136.69" y="-319.25" font-family="Helvetica,sans-Serif" font-size="14.00">True</text>
</g>
<!-- 2 -->
<g id="node3" class="node">
<title>2</title>
<path fill="#f5fef9" stroke="black" d="M318,-306C318,-306 211,-306 211,-306 205,-306 199,-300 199,-294 199,-294 199,-235 199,-235 199,-229 205,-223 211,-223 211,-223 318,-223 318,-223 324,-223 330,-229 330,-235 330,-235 330,-294 330,-294 330,-300 324,-306 318,-306"/>
<text text-anchor="start" x="207" y="-290.8" font-family="Helvetica,sans-Serif" font-size="14.00">petal_length ≤ 4.75</text>
<text text-anchor="start" x="236.5" y="-275.8" font-family="Helvetica,sans-Serif" font-size="14.00">gini = 0.5</text>
<text text-anchor="start" x="223.5" y="-260.8" font-family="Helvetica,sans-Serif" font-size="14.00">samples = 80</text>
<text text-anchor="start" x="210" y="-245.8" font-family="Helvetica,sans-Serif" font-size="14.00">value = [0, 41, 39]</text>
<text text-anchor="start" x="212" y="-230.8" font-family="Helvetica,sans-Serif" font-size="14.00">class = versicolor</text>
</g>
<!-- 0&#45;&gt;2 -->
<g id="edge2" class="edge">
<title>0&#45;&gt;2</title>
<path fill="none" stroke="black" d="M218.13,-341.91C223.47,-333.1 229.18,-323.7 234.7,-314.61"/>
<polygon fill="black" stroke="black" points="237.71,-316.39 239.91,-306.02 231.73,-312.75 237.71,-316.39"/>
<text text-anchor="middle" x="245.85" y="-326.6" font-family="Helvetica,sans-Serif" font-size="14.00">False</text>
</g>
<!-- 3 -->
<g id="node4" class="node">
<title>3</title>
<path fill="#3ee684" stroke="black" d="M243.5,-187C243.5,-187 141.5,-187 141.5,-187 135.5,-187 129.5,-181 129.5,-175 129.5,-175 129.5,-116 129.5,-116 129.5,-110 135.5,-104 141.5,-104 141.5,-104 243.5,-104 243.5,-104 249.5,-104 255.5,-110 255.5,-116 255.5,-116 255.5,-175 255.5,-175 255.5,-181 249.5,-187 243.5,-187"/>
<text text-anchor="start" x="137.5" y="-171.8" font-family="Helvetica,sans-Serif" font-size="14.00">petal_width ≤ 1.65</text>
<text text-anchor="start" x="157" y="-156.8" font-family="Helvetica,sans-Serif" font-size="14.00">gini = 0.053</text>
<text text-anchor="start" x="151.5" y="-141.8" font-family="Helvetica,sans-Serif" font-size="14.00">samples = 37</text>
<text text-anchor="start" x="142" y="-126.8" font-family="Helvetica,sans-Serif" font-size="14.00">value = [0, 36, 1]</text>
<text text-anchor="start" x="140" y="-111.8" font-family="Helvetica,sans-Serif" font-size="14.00">class = versicolor</text>
</g>
<!-- 2&#45;&gt;3 -->
<g id="edge3" class="edge">
<title>2&#45;&gt;3</title>
<path fill="none" stroke="black" d="M239.52,-222.91C234.1,-214.1 228.32,-204.7 222.72,-195.61"/>
<polygon fill="black" stroke="black" points="225.66,-193.7 217.44,-187.02 219.7,-197.37 225.66,-193.7"/>
</g>
<!-- 6 -->
<g id="node7" class="node">
<title>6</title>
<path fill="#9253e8" stroke="black" d="M387.5,-187C387.5,-187 285.5,-187 285.5,-187 279.5,-187 273.5,-181 273.5,-175 273.5,-175 273.5,-116 273.5,-116 273.5,-110 279.5,-104 285.5,-104 285.5,-104 387.5,-104 387.5,-104 393.5,-104 399.5,-110 399.5,-116 399.5,-116 399.5,-175 399.5,-175 399.5,-181 393.5,-187 387.5,-187"/>
<text text-anchor="start" x="281.5" y="-171.8" font-family="Helvetica,sans-Serif" font-size="14.00">petal_width ≤ 1.75</text>
<text text-anchor="start" x="301" y="-156.8" font-family="Helvetica,sans-Serif" font-size="14.00">gini = 0.206</text>
<text text-anchor="start" x="295.5" y="-141.8" font-family="Helvetica,sans-Serif" font-size="14.00">samples = 43</text>
<text text-anchor="start" x="286" y="-126.8" font-family="Helvetica,sans-Serif" font-size="14.00">value = [0, 5, 38]</text>
<text text-anchor="start" x="288" y="-111.8" font-family="Helvetica,sans-Serif" font-size="14.00">class = virginica</text>
</g>
<!-- 2&#45;&gt;6 -->
<g id="edge6" class="edge">
<title>2&#45;&gt;6</title>
<path fill="none" stroke="black" d="M289.48,-222.91C294.9,-214.1 300.68,-204.7 306.28,-195.61"/>
<polygon fill="black" stroke="black" points="309.3,-197.37 311.56,-187.02 303.34,-193.7 309.3,-197.37"/>
</g>
<!-- 4 -->
<g id="node5" class="node">
<title>4</title>
<path fill="#39e581" stroke="black" d="M109,-68C109,-68 12,-68 12,-68 6,-68 0,-62 0,-56 0,-56 0,-12 0,-12 0,-6 6,0 12,0 12,0 109,0 109,0 115,0 121,-6 121,-12 121,-12 121,-56 121,-56 121,-62 115,-68 109,-68"/>
<text text-anchor="start" x="32.5" y="-52.8" font-family="Helvetica,sans-Serif" font-size="14.00">gini = 0.0</text>
<text text-anchor="start" x="19.5" y="-37.8" font-family="Helvetica,sans-Serif" font-size="14.00">samples = 36</text>
<text text-anchor="start" x="10" y="-22.8" font-family="Helvetica,sans-Serif" font-size="14.00">value = [0, 36, 0]</text>
<text text-anchor="start" x="8" y="-7.8" font-family="Helvetica,sans-Serif" font-size="14.00">class = versicolor</text>
</g>
<!-- 3&#45;&gt;4 -->
<g id="edge4" class="edge">
<title>3&#45;&gt;4</title>
<path fill="none" stroke="black" d="M143.35,-103.73C131.91,-94.24 119.76,-84.16 108.38,-74.72"/>
<polygon fill="black" stroke="black" points="110.57,-71.99 100.64,-68.3 106.1,-77.38 110.57,-71.99"/>
</g>
<!-- 5 -->
<g id="node6" class="node">
<title>5</title>
<path fill="#8139e5" stroke="black" d="M240,-68C240,-68 151,-68 151,-68 145,-68 139,-62 139,-56 139,-56 139,-12 139,-12 139,-6 145,0 151,0 151,0 240,0 240,0 246,0 252,-6 252,-12 252,-12 252,-56 252,-56 252,-62 246,-68 240,-68"/>
<text text-anchor="start" x="167.5" y="-52.8" font-family="Helvetica,sans-Serif" font-size="14.00">gini = 0.0</text>
<text text-anchor="start" x="158" y="-37.8" font-family="Helvetica,sans-Serif" font-size="14.00">samples = 1</text>
<text text-anchor="start" x="148.5" y="-22.8" font-family="Helvetica,sans-Serif" font-size="14.00">value = [0, 0, 1]</text>
<text text-anchor="start" x="147" y="-7.8" font-family="Helvetica,sans-Serif" font-size="14.00">class = virginica</text>
</g>
<!-- 3&#45;&gt;5 -->
<g id="edge5" class="edge">
<title>3&#45;&gt;5</title>
<path fill="none" stroke="black" d="M193.62,-103.73C193.84,-95.52 194.08,-86.86 194.31,-78.56"/>
<polygon fill="black" stroke="black" points="197.81,-78.39 194.59,-68.3 190.82,-78.2 197.81,-78.39"/>
</g>
<!-- 7 -->
<g id="node8" class="node">
<title>7</title>
<path fill="#ffffff" stroke="black" d="M383,-68C383,-68 286,-68 286,-68 280,-68 274,-62 274,-56 274,-56 274,-12 274,-12 274,-6 280,0 286,0 286,0 383,0 383,0 389,0 395,-6 395,-12 395,-12 395,-56 395,-56 395,-62 389,-68 383,-68"/>
<text text-anchor="start" x="306.5" y="-52.8" font-family="Helvetica,sans-Serif" font-size="14.00">gini = 0.5</text>
<text text-anchor="start" x="297" y="-37.8" font-family="Helvetica,sans-Serif" font-size="14.00">samples = 8</text>
<text text-anchor="start" x="287.5" y="-22.8" font-family="Helvetica,sans-Serif" font-size="14.00">value = [0, 4, 4]</text>
<text text-anchor="start" x="282" y="-7.8" font-family="Helvetica,sans-Serif" font-size="14.00">class = versicolor</text>
</g>
<!-- 6&#45;&gt;7 -->
<g id="edge7" class="edge">
<title>6&#45;&gt;7</title>
<path fill="none" stroke="black" d="M335.76,-103.73C335.61,-95.52 335.45,-86.86 335.3,-78.56"/>
<polygon fill="black" stroke="black" points="338.79,-78.23 335.11,-68.3 331.79,-78.36 338.79,-78.23"/>
</g>
<!-- 8 -->
<g id="node9" class="node">
<title>8</title>
<path fill="#853fe6" stroke="black" d="M518,-68C518,-68 425,-68 425,-68 419,-68 413,-62 413,-56 413,-56 413,-12 413,-12 413,-6 419,0 425,0 425,0 518,0 518,0 524,0 530,-6 530,-12 530,-12 530,-56 530,-56 530,-62 524,-68 518,-68"/>
<text text-anchor="start" x="436" y="-52.8" font-family="Helvetica,sans-Serif" font-size="14.00">gini = 0.056</text>
<text text-anchor="start" x="430.5" y="-37.8" font-family="Helvetica,sans-Serif" font-size="14.00">samples = 35</text>
<text text-anchor="start" x="421" y="-22.8" font-family="Helvetica,sans-Serif" font-size="14.00">value = [0, 1, 34]</text>
<text text-anchor="start" x="423" y="-7.8" font-family="Helvetica,sans-Serif" font-size="14.00">class = virginica</text>
</g>
<!-- 6&#45;&gt;8 -->
<g id="edge8" class="edge">
<title>6&#45;&gt;8</title>
<path fill="none" stroke="black" d="M386.77,-103.73C398.46,-94.24 410.9,-84.16 422.54,-74.72"/>
<polygon fill="black" stroke="black" points="424.88,-77.32 430.45,-68.3 420.47,-71.88 424.88,-77.32"/>
</g>
</g>
</svg>